<svg xmlns="http://www.w3.org/2000/svg" xmlns:xlink="http://www.w3.org/1999/xlink" viewBox="0 0 50 50"><path d="M2.8125 0C1.277344 0 0 1.277344 0 2.8125L0 7.8125C-0.0078125 7.875 -0.0078125 7.9375 0 8L0 40C0 40.550781 0.449219 41 1 41L24 41C24.359375 41.003906 24.695313 40.816406 24.878906 40.503906C25.058594 40.191406 25.058594 39.808594 24.878906 39.496094C24.695313 39.183594 24.359375 38.996094 24 39L2 39L2 9L42 9L42 22C41.996094 22.359375 42.183594 22.695313 42.496094 22.878906C42.808594 23.058594 43.191406 23.058594 43.503906 22.878906C43.816406 22.695313 44.003906 22.359375 44 22L44 8C44.007813 7.9375 44.007813 7.875 44 7.8125L44 2.8125C44 1.277344 42.722656 0 41.1875 0 Z M 2.8125 2L41.1875 2C41.652344 2 42 2.347656 42 2.8125L42 7L2 7L2 2.8125C2 2.347656 2.347656 2 2.8125 2 Z M 7 15L7 17L11 17L11 15 Z M 14 15L14 17L37 17L37 15 Z M 7 20L7 22L11 22L11 20 Z M 14 20L14 22L37 22L37 20 Z M 45.90625 24.90625C44.855469 24.90625 43.800781 25.292969 43 26.09375L42.3125 26.8125L42.34375 26.84375L26.90625 42.28125C26.777344 42.398438 26.679688 42.550781 26.625 42.71875L24.9375 48.71875C24.835938 49.066406 24.925781 49.441406 25.179688 49.703125C25.433594 49.960938 25.804688 50.0625 26.15625 49.96875L32.15625 48.375C32.324219 48.320313 32.476563 48.222656 32.59375 48.09375L48.40625 32.40625C48.527344 32.304688 48.625 32.175781 48.6875 32.03125C48.6875 32.019531 48.6875 32.011719 48.6875 32L48.8125 31.90625C50.414063 30.304688 50.414063 27.695313 48.8125 26.09375C48.011719 25.292969 46.957031 24.90625 45.90625 24.90625 Z M 7 25L7 27L11 27L11 25 Z M 14 25L14 27L37 27L37 25 Z M 43.75 28.25L46.75 31.25L31.40625 46.5L28.46875 43.65625L28.5 43.53125 Z M 7 30L7 32L11 32L11 30 Z M 14 30L14 32L33 32L33 30Z"/></svg>