<svg xmlns="http://www.w3.org/2000/svg" xmlns:xlink="http://www.w3.org/1999/xlink" viewBox="0 0 50 50"><path d="M2.8125 0C1.269531 0 0 1.269531 0 2.8125L0 7L44 7L44 2.8125C44 1.269531 42.730469 0 41.1875 0 Z M 0 9L0 40C0 40.554688 0.449219 41 1 41L28.1875 41L26.90625 42.28125C26.785156 42.402344 26.671875 42.554688 26.625 42.71875L24.9375 48.71875C24.839844 49.066406 24.933594 49.429688 25.1875 49.6875C25.378906 49.882813 25.640625 50 25.90625 50C25.992188 50 26.070313 49.992188 26.15625 49.96875L32.15625 48.375C32.324219 48.328125 32.46875 48.21875 32.59375 48.09375L48.40625 32.40625C48.507813 32.308594 48.574219 32.183594 48.625 32.0625L48.8125 31.90625C50.414063 30.304688 50.414063 27.695313 48.8125 26.09375C47.511719 24.792969 45.546875 24.5625 44 25.375L44 9 Z M 7 15L11 15L11 17L7 17 Z M 14 15L37 15L37 17L14 17 Z M 7 20L11 20L11 22L7 22 Z M 14 20L37 20L37 22L14 22 Z M 7 25L11 25L11 27L7 27 Z M 14 25L37 25L37 27L14 27 Z M 43.75 28.25L46.75 31.25L31.375 46.5L28.46875 43.65625L28.5 43.53125 Z M 7 30L11 30L11 32L7 32 Z M 14 30L33 30L33 32L14 32Z"/></svg>