<svg xmlns="http://www.w3.org/2000/svg" xmlns:xlink="http://www.w3.org/1999/xlink" viewBox="0 0 50 50"><path d="M6 2C2.699219 2 0 4.699219 0 8L0 37C0 40.300781 2.699219 43 6 43L50 43L50 7L11.796875 7C11.300781 4.191406 8.949219 2 6 2 Z M 6 4C8.21875 4 10 5.78125 10 8L10 32.546875C8.9375 31.589844 7.535156 31 6 31C4.464844 31 3.0625 31.589844 2 32.546875L2 8C2 5.78125 3.78125 4 6 4 Z M 12 9L48 9L48 41L6 41C3.78125 41 2 39.21875 2 37C2 34.78125 3.78125 33 6 33C8.21875 33 10 34.78125 10 37L12 37 Z M 35 15L37.792969 17.792969L32.5 23.085938L27.046875 17.628906L18.34375 25.25L19.65625 26.75L26.953125 20.371094L32.5 25.914063L39.207031 19.207031L42 22L42 15 Z M 17 32L17 34L42 34L42 32Z"/></svg>